<svg width="26" height="26" viewBox="0 0 26 26" fill="none" xmlns="http://www.w3.org/2000/svg">
<path d="M23.8333 13.0001C22.75 9.75008 17.875 5.41675 13 5.41675C8.12496 5.41675 3.24996 9.75008 2.16663 13.0001" stroke="#333333" stroke-width="2" stroke-linecap="round"/>
<path d="M2.16659 12.9999C3.24992 16.2499 8.12492 20.5833 12.9999 20.5833C17.8749 20.5833 22.7499 16.2499 23.8333 12.9999" stroke="#333333" stroke-width="2" stroke-linecap="round"/>
<path d="M15.975 12.9428C15.975 14.6047 14.6453 15.9791 13 15.9791C11.3546 15.9791 10.0155 14.6047 10.0155 12.9428C10.0155 11.281 11.3546 10.0207 13 10.0207C14.6453 10.0207 15.975 11.281 15.975 12.9428Z" stroke="#333333" stroke-width="2"/>
<path d="M23.2917 21.125L4.875 2.70837" stroke="white" stroke-width="2" stroke-linecap="round"/>
<path d="M22.2083 22.2084L3.79163 3.79175" stroke="#333333" stroke-width="2" stroke-linecap="round"/>
</svg>
