<svg width="806" height="184" viewBox="0 0 806 184" fill="none" xmlns="http://www.w3.org/2000/svg">
<rect x="0.548186" y="0.548186" width="804.528" height="181.998" stroke="#ECECEC" stroke-width="1.09637"/>
<path d="M0 72.3607H805.624" stroke="#ECECEC" stroke-width="1.09637"/>
<path d="M0 33.9875H805.624" stroke="#ECECEC" stroke-width="1.09637"/>
<path d="M0 110.734H805.624" stroke="#ECECEC" stroke-width="1.09637"/>
<path d="M0 149.107H805.624" stroke="#ECECEC" stroke-width="1.09637"/>
<path d="M135.525 0L135.525 183.094" stroke="#ECECEC" stroke-width="1.09637"/>
<path d="M268.541 0L268.541 183.094" stroke="#ECECEC" stroke-width="1.09637"/>
<path d="M401.557 0L401.557 183.094" stroke="#ECECEC" stroke-width="1.09637"/>
<path d="M534.573 0L534.573 183.094" stroke="#ECECEC" stroke-width="1.09637"/>
<path d="M667.588 0L667.588 183.094" stroke="#ECECEC" stroke-width="1.09637"/>
<rect x="-0.548186" y="0.548186" width="94.288" height="10.9637" transform="matrix(-1 0 0 1 400.071 0)" fill="#FFA5CB" stroke="#F765A3" stroke-width="1.09637"/>
<rect x="401.715" y="11.5119" width="132.661" height="10.9637" fill="#E697FF" stroke="#A155B9" stroke-width="1.09637"/>
<rect x="401.715" y="22.4757" width="54.8186" height="10.9637" fill="#63ABFD" stroke="#165BAA" stroke-width="1.09637"/>
<rect x="-0.548186" y="0.548186" width="335.49" height="13.1565" transform="matrix(-1 0 0 1 736.657 32.8912)" fill="#FFA5CB" stroke="#F765A3" stroke-width="1.09637"/>
<rect x="76.0931" y="46.5958" width="324.526" height="12.0601" fill="#E697FF" stroke="#A155B9" stroke-width="1.09637"/>
<rect x="276.729" y="58.6559" width="123.89" height="13.1565" fill="#63ABFD" stroke="#165BAA" stroke-width="1.09637"/>
<rect x="401.715" y="71.8126" width="94.288" height="13.1565" fill="#FFA5CB" stroke="#F765A3" stroke-width="1.09637"/>
<rect x="401.715" y="84.9691" width="202.829" height="12.0601" fill="#E697FF" stroke="#A155B9" stroke-width="1.09637"/>
<rect x="401.715" y="97.0291" width="154.588" height="13.1565" fill="#63ABFD" stroke="#165BAA" stroke-width="1.09637"/>
<rect x="306.331" y="111.282" width="94.288" height="12.0601" fill="#FFA5CB" stroke="#F765A3" stroke-width="1.09637"/>
<rect x="269.055" y="123.342" width="131.565" height="13.1565" fill="#E697FF" stroke="#A155B9" stroke-width="1.09637"/>
<rect x="329.355" y="136.498" width="71.2642" height="12.0601" fill="#63ABFD" stroke="#165BAA" stroke-width="1.09637"/>
<rect x="401.715" y="149.655" width="33.9875" height="10.9637" fill="#FFA5CB" stroke="#F765A3" stroke-width="1.09637"/>
<rect x="401.715" y="160.619" width="84.4206" height="10.9637" fill="#E697FF" stroke="#A155B9" stroke-width="1.09637"/>
<rect x="401.715" y="171.582" width="47.144" height="10.9637" fill="#63ABFD" stroke="#165BAA" stroke-width="1.09637"/>
</svg>
