<svg width="223" height="116" viewBox="0 0 223 116" fill="none" xmlns="http://www.w3.org/2000/svg">
<rect x="0.429067" y="0.428822" width="221.947" height="114.935" stroke="#ECECEC" stroke-width="0.857645"/>
<path d="M0.000244141 45.7625H222.804" stroke="#ECECEC" stroke-width="0.857645"/>
<path d="M0.000244141 21.4945H222.804" stroke="#ECECEC" stroke-width="0.857645"/>
<path d="M0.000244141 70.0304H222.804" stroke="#ECECEC" stroke-width="0.857645"/>
<path d="M0.000244141 94.2983H222.804" stroke="#ECECEC" stroke-width="0.857645"/>
<path d="M37.4812 0.00012207L37.4812 115.793" stroke="#ECECEC" stroke-width="0.857645"/>
<path d="M74.2683 0.00012207L74.2683 115.793" stroke="#ECECEC" stroke-width="0.857645"/>
<path d="M111.055 0.00012207L111.055 115.793" stroke="#ECECEC" stroke-width="0.857645"/>
<path d="M147.842 0.00012207L147.842 115.793" stroke="#ECECEC" stroke-width="0.857645"/>
<path d="M184.629 0.00012207L184.629 115.793" stroke="#ECECEC" stroke-width="0.857645"/>
<rect x="-0.428822" y="0.428822" width="42.1762" height="6.76942" transform="matrix(-1 0 0 1 42.1763 0)" fill="#FFA5CB" stroke="#F765A3" stroke-width="0.857645"/>
<rect x="0.429067" y="7.36266" width="59.5285" height="6.76942" fill="#E697FF" stroke="#A155B9" stroke-width="0.857645"/>
<rect x="0.429067" y="14.2963" width="24.1297" height="6.76942" fill="#63ABFD" stroke="#165BAA" stroke-width="0.857645"/>
<rect x="-0.428822" y="0.428822" width="151.149" height="8.15615" transform="matrix(-1 0 0 1 151.149 20.8011)" fill="#FFA5CB" stroke="#F765A3" stroke-width="0.857645"/>
<rect x="0.429067" y="29.5504" width="146.984" height="7.46279" fill="#E697FF" stroke="#A155B9" stroke-width="0.857645"/>
<rect x="0.429067" y="37.1775" width="56.0581" height="8.15616" fill="#63ABFD" stroke="#165BAA" stroke-width="0.857645"/>
<rect x="0.429067" y="45.4979" width="42.1762" height="8.15616" fill="#FFA5CB" stroke="#F765A3" stroke-width="0.857645"/>
<rect x="0.429067" y="53.8185" width="91.4569" height="7.46279" fill="#E697FF" stroke="#A155B9" stroke-width="0.857645"/>
<rect x="0.429067" y="61.4454" width="69.9399" height="8.15616" fill="#63ABFD" stroke="#165BAA" stroke-width="0.857645"/>
<rect x="0.429067" y="70.4593" width="88.6805" height="7.46279" fill="#FFA5CB" stroke="#F765A3" stroke-width="0.857645"/>
<rect x="0.429067" y="78.0863" width="59.5285" height="8.15616" fill="#E697FF" stroke="#A155B9" stroke-width="0.857645"/>
<rect x="0.429067" y="86.4067" width="116.444" height="7.46279" fill="#63ABFD" stroke="#165BAA" stroke-width="0.857645"/>
<rect x="0.429067" y="94.7272" width="15.1065" height="6.76942" fill="#FFA5CB" stroke="#F765A3" stroke-width="0.857645"/>
<rect x="0.429067" y="101.661" width="180.995" height="6.76942" fill="#E697FF" stroke="#A155B9" stroke-width="0.857645"/>
<rect x="0.429067" y="108.595" width="12.3301" height="6.76942" fill="#63ABFD" stroke="#165BAA" stroke-width="0.857645"/>
</svg>
