<svg width="203" height="203" viewBox="0 0 203 203" fill="none" xmlns="http://www.w3.org/2000/svg">
<mask id="path-1-inside-1_2201_397" fill="white">
<path d="M51.0861 50.0931C59.1144 42.2209 68.8849 36.3517 79.6054 32.9613C90.3258 29.571 101.694 28.755 112.789 30.5795C123.884 32.404 134.393 36.8177 143.463 43.4626C152.533 50.1075 159.909 58.7965 164.994 68.825C170.078 78.8536 172.728 89.9392 172.727 101.183C172.727 112.427 170.076 123.512 164.99 133.54C159.905 143.568 152.528 152.256 143.457 158.9C134.386 165.544 123.877 169.957 112.782 171.78L101.179 101.179L51.0861 50.0931Z"/>
</mask>
<path d="M51.0861 50.0931C59.1144 42.2209 68.8849 36.3517 79.6054 32.9613C90.3258 29.571 101.694 28.755 112.789 30.5795C123.884 32.404 134.393 36.8177 143.463 43.4626C152.533 50.1075 159.909 58.7965 164.994 68.825C170.078 78.8536 172.728 89.9392 172.727 101.183C172.727 112.427 170.076 123.512 164.99 133.54C159.905 143.568 152.528 152.256 143.457 158.9C134.386 165.544 123.877 169.957 112.782 171.78L101.179 101.179L51.0861 50.0931Z" fill="#165BAA" stroke="#16BFD6" stroke-width="1.55539" mask="url(#path-1-inside-1_2201_397)"/>
<mask id="path-2-inside-2_2201_397" fill="white">
<path d="M165.85 131.786C161.04 141.95 153.902 150.836 145.016 157.725C136.13 164.614 125.745 169.312 114.704 171.437C103.663 173.563 92.2764 173.056 81.4677 169.958C70.659 166.861 60.7326 161.259 52.4933 153.608C44.254 145.957 37.9339 136.472 34.0456 125.922C30.1572 115.372 28.81 104.054 30.1133 92.8861C31.4166 81.7181 35.3336 71.0144 41.5467 61.6432C47.7598 52.2719 56.0941 44.4969 65.8737 38.9487L101.179 101.179L165.85 131.786Z"/>
</mask>
<path d="M165.85 131.786C161.04 141.95 153.902 150.836 145.016 157.725C136.13 164.614 125.745 169.312 114.704 171.437C103.663 173.563 92.2764 173.056 81.4677 169.958C70.659 166.861 60.7326 161.259 52.4933 153.608C44.254 145.957 37.9339 136.472 34.0456 125.922C30.1572 115.372 28.81 104.054 30.1133 92.8861C31.4166 81.7181 35.3336 71.0144 41.5467 61.6432C47.7598 52.2719 56.0941 44.4969 65.8737 38.9487L101.179 101.179L165.85 131.786Z" fill="#63ABFD" stroke="#165BAA" stroke-width="1.55539" mask="url(#path-2-inside-2_2201_397)"/>
<mask id="path-3-inside-3_2201_397" fill="white">
<path d="M88.6996 54.605C98.0465 52.1005 107.931 52.4663 117.067 55.6549C126.203 58.8434 134.169 64.7071 139.928 72.4836C145.687 80.26 148.972 89.5893 149.358 99.2582C149.743 108.927 147.211 118.488 142.089 126.699C136.968 134.909 129.494 141.388 120.641 145.294C111.788 149.2 101.964 150.351 92.4472 148.599C82.9306 146.847 74.1614 142.271 67.2799 135.468C60.3985 128.665 55.7233 119.949 53.8622 110.453L101.179 101.179L88.6996 54.605Z"/>
</mask>
<path d="M88.6996 54.605C98.0465 52.1005 107.931 52.4663 117.067 55.6549C126.203 58.8434 134.169 64.7071 139.928 72.4836C145.687 80.26 148.972 89.5893 149.358 99.2582C149.743 108.927 147.211 118.488 142.089 126.699C136.968 134.909 129.494 141.388 120.641 145.294C111.788 149.2 101.964 150.351 92.4472 148.599C82.9306 146.847 74.1614 142.271 67.2799 135.468C60.3985 128.665 55.7233 119.949 53.8622 110.453L101.179 101.179L88.6996 54.605Z" fill="#A155B9" stroke="#E697FF" stroke-width="1.55539" mask="url(#path-3-inside-3_2201_397)"/>
<mask id="path-4-inside-4_2201_397" fill="white">
<path d="M54.6049 113.659C52.1004 104.312 52.4662 94.4276 55.6547 85.2914C58.8433 76.1551 64.707 68.1897 72.4834 62.4308C80.2598 56.6719 89.5891 53.386 99.2581 53.0005C108.927 52.615 118.488 55.1476 126.699 60.2691C134.909 65.3906 141.388 72.864 145.294 81.7174C149.2 90.5708 150.351 100.395 148.599 109.911C146.846 119.428 142.271 128.197 135.468 135.078C128.665 141.96 119.948 146.635 110.452 148.496L101.179 101.179L54.6049 113.659Z"/>
</mask>
<path d="M54.6049 113.659C52.1004 104.312 52.4662 94.4276 55.6547 85.2914C58.8433 76.1551 64.707 68.1897 72.4834 62.4308C80.2598 56.6719 89.5891 53.386 99.2581 53.0005C108.927 52.615 118.488 55.1476 126.699 60.2691C134.909 65.3906 141.388 72.864 145.294 81.7174C149.2 90.5708 150.351 100.395 148.599 109.911C146.846 119.428 142.271 128.197 135.468 135.078C128.665 141.96 119.948 146.635 110.452 148.496L101.179 101.179L54.6049 113.659Z" fill="#E697FF" stroke="#A155B9" stroke-width="1.55539" mask="url(#path-4-inside-4_2201_397)"/>
<mask id="path-5-inside-5_2201_397" fill="white">
<path d="M80.3006 113.233C77.6814 108.697 76.611 103.431 77.2515 98.2317C77.8919 93.0326 80.2083 88.1836 83.8502 84.4183C87.492 80.653 92.2611 78.1763 97.436 77.363C102.611 76.5497 107.91 77.444 112.531 79.9105C117.152 82.3771 120.845 86.2817 123.049 91.0337C125.253 95.7856 125.85 101.126 124.749 106.248C123.648 111.369 120.908 115.992 116.945 119.418C112.983 122.844 108.012 124.885 102.785 125.234L101.179 101.179L80.3006 113.233Z"/>
</mask>
<path d="M80.3006 113.233C77.6814 108.697 76.611 103.431 77.2515 98.2317C77.8919 93.0326 80.2083 88.1836 83.8502 84.4183C87.492 80.653 92.2611 78.1763 97.436 77.363C102.611 76.5497 107.91 77.444 112.531 79.9105C117.152 82.3771 120.845 86.2817 123.049 91.0337C125.253 95.7856 125.85 101.126 124.749 106.248C123.648 111.369 120.908 115.992 116.945 119.418C112.983 122.844 108.012 124.885 102.785 125.234L101.179 101.179L80.3006 113.233Z" fill="#FFA5CB" stroke="#F765A3" stroke-width="1.55539" mask="url(#path-5-inside-5_2201_397)"/>
<mask id="path-6-inside-6_2201_397" fill="white">
<path d="M125.288 101.179C125.288 106.418 123.582 111.513 120.428 115.696C117.273 119.878 112.843 122.919 107.806 124.359C102.77 125.799 97.4012 125.559 92.513 123.676C87.6248 121.793 83.4829 118.369 80.714 113.922C77.9451 109.476 76.6999 104.248 77.1667 99.0306C77.6336 93.8131 79.7871 88.8896 83.3015 85.005C86.8158 81.1205 91.4998 78.4863 96.6447 77.501C101.79 76.5157 107.115 77.2329 111.816 79.5441L101.179 101.179H125.288Z"/>
</mask>
<path d="M125.288 101.179C125.288 106.418 123.582 111.513 120.428 115.696C117.273 119.878 112.843 122.919 107.806 124.359C102.77 125.799 97.4012 125.559 92.513 123.676C87.6248 121.793 83.4829 118.369 80.714 113.922C77.9451 109.476 76.6999 104.248 77.1667 99.0306C77.6336 93.8131 79.7871 88.8896 83.3015 85.005C86.8158 81.1205 91.4998 78.4863 96.6447 77.501C101.79 76.5157 107.115 77.2329 111.816 79.5441L101.179 101.179H125.288Z" fill="#F765A3" stroke="#FFA5CB" stroke-width="1.55539" mask="url(#path-6-inside-6_2201_397)"/>
</svg>
