<svg width="34" height="34" viewBox="0 0 34 34" fill="none" xmlns="http://www.w3.org/2000/svg">
<path d="M12.7791 28.3334C12.7791 29.2188 12.8831 30.2455 13.806 30.8864C14.729 31.5273 15.8625 31.875 17.0291 31.875C18.1956 31.875 19.3291 31.5273 20.2521 30.8864C21.175 30.2455 21.2791 29.2188 21.2791 28.3334" stroke="#333333" stroke-width="2" stroke-linecap="round" stroke-linejoin="round"/>
<path fill-rule="evenodd" clip-rule="evenodd" d="M7.81964 14.875C7.81964 9.78942 11.9424 5.66671 17.028 5.66671V2.83337C10.3775 2.83337 4.98631 8.22461 4.98631 14.875V19.2772C4.98631 20.2513 4.67037 21.1991 4.08592 21.9783L3.71324 22.4752C3.30976 23.0132 2.63499 24.0563 2.88967 25.3099C3.28856 27.2733 5.00281 27.9381 6.29428 28.1706C7.36397 28.3632 8.60742 28.3489 9.56103 28.3379C9.76429 28.3356 9.95448 28.3334 10.1269 28.3334H17.028V25.5H10.1269C9.88599 25.5 9.64719 25.5023 9.41156 25.5045C8.46703 25.5135 7.57321 25.522 6.79626 25.3821C5.83238 25.2086 5.70632 24.9342 5.66781 24.7531C5.66866 24.7411 5.6736 24.7074 5.69769 24.645C5.74343 24.5266 5.8334 24.3706 5.97991 24.1752L6.35259 23.6783C7.30487 22.4086 7.81964 20.8643 7.81964 19.2772V14.875ZM5.66775 24.7584C5.66769 24.7584 5.66762 24.7574 5.6677 24.7553L5.66775 24.7584Z" fill="#333333"/>
<path fill-rule="evenodd" clip-rule="evenodd" d="M26.2374 14.875C26.2374 9.78942 22.1136 5.66671 17.028 5.66671V2.83337C23.6784 2.83337 29.0708 8.22461 29.0708 14.875V19.2772C29.0708 20.2513 29.3867 21.1991 29.9712 21.9783L30.3438 22.4752C30.7473 23.0132 31.4221 24.0563 31.1674 25.3099C30.7685 27.2733 29.0543 27.9381 27.7628 28.1706C26.6931 28.3632 25.4497 28.3489 24.4961 28.3379C24.2928 28.3356 24.1026 28.3334 23.9302 28.3334H17.028V25.5H23.9302C24.1711 25.5 24.4099 25.5023 24.6455 25.5045C25.59 25.5135 26.4839 25.522 27.2608 25.3821C28.2247 25.2086 28.3508 24.9342 28.3893 24.7531C28.3884 24.7411 28.3835 24.7074 28.3594 24.645C28.3137 24.5266 28.2237 24.3706 28.0772 24.1752L27.7045 23.6783C26.7522 22.4086 26.2374 20.8643 26.2374 19.2772V14.875ZM28.3893 24.7584C28.3894 24.7584 28.3895 24.7574 28.3894 24.7553L28.3893 24.7584Z" fill="#333333"/>
</svg>
